<?xml version="1.0" encoding="UTF-8"?>
<svg version="1.1" xmlns="http://www.w3.org/2000/svg" width="512" height="512">
<path d="M0 0 C1.3168576 0.01673484 1.3168576 0.01673484 2.66031837 0.03380775 C14.89412138 0.25043098 27.10996226 1.01518572 39.32177734 1.73974609 C41.94681249 1.89216752 44.57186367 2.04431289 47.19692993 2.19619751 C52.65482372 2.5129974 58.11239626 2.83495019 63.56982422 3.15966797 C69.86349585 3.53403466 76.15771148 3.89797658 82.45227563 4.25699651 C88.55135146 4.60527589 94.64985682 4.96270633 100.74818802 5.32378006 C103.32762486 5.47542704 105.90721345 5.62451554 108.48694992 5.77097702 C112.07872967 5.97586227 115.66973836 6.19117098 119.26074219 6.40917969 C120.32048752 6.46744431 121.38023285 6.52570892 122.47209167 6.58573914 C134.61889341 7.34936216 134.61889341 7.34936216 138.54833984 11.27880859 C139.24206385 18.27344313 137.35977454 23.95640774 135.11865234 30.53271484 C134.76825897 31.59239975 134.4178656 32.65208466 134.05685425 33.74388123 C132.9401345 37.11351039 131.80724316 40.47742756 130.67333984 43.84130859 C129.55023739 47.20989325 128.43044151 50.57956225 127.31124878 53.94944763 C126.61535829 56.04068977 125.91654514 58.13096232 125.21438599 60.22010803 C123.53991164 65.21279928 121.94084459 70.19992382 120.54833984 75.27880859 C121.78003906 75.44823975 123.01173828 75.6176709 124.28076172 75.79223633 C137.20329751 77.5917443 150.076557 79.62338413 162.93847656 81.81323242 C166.10040684 82.35014993 169.26377112 82.87803062 172.42724609 83.40576172 C174.45728618 83.74961909 176.48723769 84.09399982 178.51708984 84.43896484 C179.4534729 84.59422134 180.38985596 84.74947784 181.35461426 84.90943909 C192.01510997 86.74557872 192.01510997 86.74557872 195.54833984 90.27880859 C195.90274305 95.77451351 195.28314702 100.20763903 193.76000977 105.53344727 C193.47463097 106.5472773 193.47463097 106.5472773 193.18348694 107.58158875 C192.55894347 109.78975005 191.91935278 111.99320936 191.27880859 114.19677734 C190.83687647 115.74257862 190.39567029 117.28858762 189.95515442 118.83479309 C189.03282759 122.06344803 188.10327798 125.2899044 187.16821289 128.51489258 C185.97242471 132.64048919 184.79255724 136.77043182 183.61776257 140.90204906 C182.70962466 144.09070812 181.79426666 147.2772582 180.87661171 150.46319008 C180.43891174 151.98521429 180.00316716 153.50780229 179.56944847 155.03096581 C178.96171667 157.16023296 178.34459035 159.28655417 177.72485352 161.41235352 C177.3762175 162.6206633 177.02758148 163.82897308 176.66838074 165.07389832 C175.5890761 168.16224496 174.4709855 170.63508096 172.54833984 173.27880859 C166.21795761 175.36342348 160.59081604 173.31073053 154.36474609 171.53271484 C153.30924057 171.24275131 152.25373505 170.95278778 151.16624451 170.65403748 C147.81078617 169.72911648 144.46091425 168.78552321 141.11083984 167.84130859 C138.83058452 167.20920828 136.54998867 166.57833498 134.26904297 165.94873047 C128.69145226 164.40628224 123.1183241 162.84848921 117.54833984 161.27880859 C117.72115479 162.53870605 117.89396973 163.79860352 118.07202148 165.09667969 C122.1139626 197.79692993 116.85551948 220.80561028 101.67333984 249.40380859 C101.11194242 250.46160145 101.11194242 250.46160145 100.53920364 251.54076385 C96.2881226 259.51389256 91.88878526 267.39857602 87.40612698 275.24342442 C79.38739608 289.29733835 72.208152 303.80130997 65.13671875 318.34887695 C64.12753602 320.42161956 63.10831073 322.48916555 62.08740234 324.55615234 C61.78943756 325.17586411 61.49147278 325.79557587 61.18447876 326.43406677 C57.85353986 333.13680462 57.85353986 333.13680462 54.54833984 335.27880859 C47.60098736 335.76868896 40.44718709 333.00792965 33.88427734 331.05224609 C32.73559174 330.7166568 31.58690613 330.3810675 30.40341187 330.03530884 C27.89642727 329.30178795 25.39041343 328.56561366 22.88562012 327.82470703 C18.84726621 326.63022069 14.80595326 325.44597216 10.76416016 324.26318359 C6.39976624 322.98538461 2.03566059 321.70662586 -2.32739258 320.42425537 C-13.85537576 317.03602877 -25.39019854 313.67173542 -36.92822266 310.31787109 C-38.67253715 309.81074338 -40.41685071 309.30361243 -42.16116333 308.79647827 C-44.77158635 308.03757736 -47.38201906 307.27870984 -49.99247169 306.51991081 C-55.83275668 304.82226513 -61.67287708 303.12405533 -67.51269531 301.42480469 C-68.30666151 301.19379374 -69.10062771 300.96278278 -69.91865349 300.7247715 C-73.83370712 299.58530293 -77.74831374 298.44433247 -81.66207886 297.30044556 C-83.1928456 296.85311145 -84.72361747 296.4057949 -86.25439453 295.95849609 C-87.00664873 295.73864737 -87.75890293 295.51879864 -88.53395271 295.29228783 C-93.28127349 293.90673195 -98.03257339 292.53572368 -102.7867775 291.17398071 C-105.95744207 290.26464809 -109.12620775 289.34881314 -112.29470062 288.4319458 C-113.78963829 288.00111822 -115.28543984 287.57327548 -116.78214264 287.14862061 C-118.84062676 286.56428558 -120.89586065 285.96961936 -122.95068359 285.37255859 C-124.11388123 285.03933594 -125.27707886 284.70611328 -126.4755249 284.36279297 C-131.49856256 282.53327452 -131.49856256 282.53327452 -133.45166016 280.27880859 C-133.83311422 277.46382425 -133.957999 275.04119431 -133.90576172 272.22729492 C-133.90634583 271.40755692 -133.90692993 270.58781891 -133.90753174 269.74324036 C-133.90474358 267.03201034 -133.87361784 264.32187792 -133.84228516 261.61083984 C-133.83482535 259.73183289 -133.82913119 257.85281817 -133.82513428 255.97380066 C-133.80985742 251.02685081 -133.77055796 246.08037029 -133.72631836 241.13360596 C-133.68540986 236.0863683 -133.66713272 231.03905485 -133.64697266 225.99169922 C-133.60406568 216.08719607 -133.53578955 206.18304135 -133.45166016 196.27880859 C-134.47423668 196.09807045 -134.47423668 196.09807045 -135.51747131 195.91368103 C-144.44880943 194.3155217 -153.29609954 192.41744026 -162.15161133 190.44750977 C-163.98821785 190.04081272 -165.82580509 189.6385213 -167.66430664 189.24047852 C-170.34436283 188.66008872 -173.02123208 188.06666447 -175.69775391 187.47021484 C-176.51755234 187.2951088 -177.33735077 187.12000275 -178.18199158 186.93959045 C-182.20624296 186.02690341 -185.43635035 185.28632565 -188.45166016 182.27880859 C-189.72611887 179.13514377 -189.64805029 177.75957727 -188.36181641 174.61083984 C-185.96604703 170.43171658 -183.06280123 166.94155561 -179.95166016 163.27880859 C-178.68348297 161.76292647 -177.4165712 160.24598487 -176.15087891 158.72802734 C-175.52358887 157.9769873 -174.89629883 157.22594727 -174.25 156.45214844 C-171.7018426 153.37263483 -169.22347757 150.24197146 -166.76416016 147.09130859 C-166.32265625 146.52605469 -165.88115234 145.96080078 -165.42626953 145.37841797 C-164.54306333 144.24620209 -163.66040893 143.11355554 -162.77832031 141.98046875 C-160.51157684 139.0729969 -158.23080244 136.17656368 -155.95166016 133.27880859 C-155.04925162 132.130422 -154.14690806 130.98198435 -153.24462891 129.83349609 C-148.64697266 123.98193359 -144.04931641 118.13037109 -139.45166016 112.27880859 C-143.38615276 110.62572975 -147.32445965 108.98193596 -151.26416016 107.34130859 C-151.88248718 107.08358673 -152.50081421 106.82586487 -153.13787842 106.56033325 C-162.00142144 102.87232018 -170.9045647 99.29676491 -179.84619141 95.80224609 C-180.81593399 95.42251144 -181.78567657 95.04277679 -182.7848053 94.65153503 C-187.64098598 92.75088922 -192.5004335 90.85932752 -197.36499023 88.98022461 C-199.16743804 88.27667539 -200.96977088 87.57283154 -202.77197266 86.86865234 C-203.60513504 86.5503244 -204.43829742 86.23199646 -205.29670715 85.90402222 C-206.06472153 85.60223053 -206.8327359 85.30043884 -207.62402344 84.98950195 C-208.62866135 84.60078163 -208.62866135 84.60078163 -209.65359497 84.20420837 C-211.68960686 83.15634594 -212.97163834 82.01889775 -214.45166016 80.27880859 C-214.88525391 78.34130859 -214.88525391 78.34130859 -214.88916016 76.27880859 C-214.90849609 75.59818359 -214.92783203 74.91755859 -214.94775391 74.21630859 C-214.22126809 71.37900967 -212.92469837 70.83337769 -210.45166016 69.27880859 C-207.93957338 68.36160869 -205.47880313 67.55137192 -202.91796875 66.80200195 C-201.78469398 66.45968033 -201.78469398 66.45968033 -200.62852478 66.11044312 C-198.121342 65.35528974 -195.61081878 64.61194874 -193.10009766 63.86865234 C-191.32617748 63.33708387 -189.55246904 62.80480834 -187.77896118 62.27186584 C-183.08253651 60.86277549 -178.38317235 59.46374163 -173.6831665 58.06665039 C-169.03640445 56.68337463 -164.39261919 55.29018374 -159.74853516 53.89794922 C-151.59548104 51.45494846 -143.43743032 49.0291609 -135.27714157 46.61044884 C-130.14624364 45.08717094 -125.02181338 43.5443687 -119.90286064 41.98142529 C-116.77143033 41.02655851 -113.63725751 40.08091407 -110.50261307 39.13665962 C-109.05955223 38.69939284 -107.61778005 38.25784563 -106.17747116 37.81159782 C-94.79290253 34.28682561 -86.79031617 32.77534962 -75.60400391 37.34912109 C-74.38155724 37.82718704 -74.38155724 37.82718704 -73.13441467 38.31491089 C-70.54679362 39.33035792 -67.96802535 40.36635358 -65.38916016 41.40380859 C-63.68725091 42.07711276 -61.9847799 42.74899879 -60.28173828 43.41943359 C-57.7673392 44.40994619 -55.25357567 45.4018527 -52.74227905 46.40020752 C-45.01916642 49.46936341 -37.24561343 52.39507987 -29.45166016 55.27880859 C-29.19570068 54.00376465 -28.93974121 52.7287207 -28.67602539 51.41503906 C-27.49930618 46.13541879 -25.75111702 41.16043601 -23.86181641 36.09912109 C-23.3440287 34.69725052 -23.3440287 34.69725052 -22.81578064 33.26705933 C-22.09005186 31.30795326 -21.3612944 29.34996669 -20.62963867 27.39306641 C-19.51095735 24.39522573 -18.4076147 21.3920296 -17.30517578 18.38818359 C-16.59580784 16.4789879 -15.8855526 14.5701216 -15.17431641 12.66162109 C-14.8460939 11.76476593 -14.5178714 10.86791077 -14.17970276 9.94387817 C-13.8660527 9.11226166 -13.55240265 8.28064514 -13.22924805 7.42382812 C-12.82193199 6.32870407 -12.82193199 6.32870407 -12.40638733 5.2114563 C-9.58575977 -0.49832084 -5.94065997 -0.14188305 0 0 Z " fill="#252122" transform="translate(265.45166015625,95.72119140625)"/>
<path d="M0 0 C0.33 0 0.66 0 1 0 C1 50.82 1 101.64 1 154 C-7.99648446 152.87543944 -7.99648446 152.87543944 -12.29296875 151.58203125 C-13.24171875 151.30037109 -14.19046875 151.01871094 -15.16796875 150.72851562 C-16.16441406 150.42623047 -17.16085937 150.12394531 -18.1875 149.8125 C-20.33707404 149.17262069 -22.48681672 148.53330766 -24.63671875 147.89453125 C-25.70841309 147.57436035 -26.78010742 147.25418945 -27.88427734 146.92431641 C-32.41290362 145.58084523 -36.95547332 144.2884463 -41.5 143 C-51.99802925 140.01196127 -62.47550361 136.95481599 -72.95166016 133.89111328 C-77.96706317 132.42497352 -82.9835818 130.9626617 -88 129.5 C-90.00000547 128.91668542 -92.00000547 128.33335208 -94 127.75 C-94.99 127.46125 -95.98 127.1725 -97 126.875 C-100 126 -103 125.125 -106 124.25 C-107.4859668 123.8166333 -107.4859668 123.8166333 -109.00195312 123.37451172 C-110.99550109 122.79300611 -112.988991 122.21130142 -114.98242188 121.62939453 C-120.08067235 120.14143229 -125.17998497 118.6572844 -130.28125 117.1796875 C-131.3228125 116.87740234 -132.364375 116.57511719 -133.4375 116.26367188 C-135.38503129 115.69854003 -137.33290986 115.13460256 -139.28125 114.57226562 C-147.56328091 112.16647682 -155.761838 109.57442563 -164 107 C-164 83.24 -164 59.48 -164 35 C-156.55819093 36.24030151 -149.27034978 37.51450659 -141.93969727 39.19897461 C-141.01273041 39.40902634 -140.08576355 39.61907806 -139.13070679 39.835495 C-136.10851989 40.52117667 -133.08746377 41.21170478 -130.06640625 41.90234375 C-127.94000338 42.38583885 -125.81353219 42.86903358 -123.68699646 43.35194397 C-118.1133848 44.61851149 -112.54072864 45.88923449 -106.96826172 47.16082764 C-101.32513867 48.44772263 -95.68107317 49.73047024 -90.03710938 51.01367188 C-81.75416526 52.89758262 -73.47153453 54.78285978 -65.18969727 56.67163086 C-64.28563928 56.87771438 -63.38158129 57.08379789 -62.4501276 57.29612637 C-56.46300389 58.6622257 -50.47997388 60.04473227 -44.50132751 61.44752502 C-40.52532955 62.32571445 -38.05603553 62.85390222 -34 62 C-28.20545496 55.72618363 -24.73657363 46.93531969 -20.90792847 39.35543823 C-19.05265702 35.68371158 -17.1790945 32.02136126 -15.3046875 28.359375 C-14.936353 27.63922714 -14.56801849 26.91907928 -14.18852234 26.17710876 C-9.6567015 17.34261084 -4.86796282 8.65298791 0 0 Z " fill="#FDFDFD" transform="translate(309,260)"/>
<path d="M0 0 C1.54010742 0.18369141 1.54010742 0.18369141 3.11132812 0.37109375 C4.83971924 0.56360718 4.83971924 0.56360718 6.60302734 0.76000977 C8.41697998 1.00062134 8.41697998 1.00062134 10.26757812 1.24609375 C11.45496582 1.39167725 12.64235352 1.53726074 13.86572266 1.68725586 C17.54624561 2.15506018 21.21910123 2.66350676 24.89257812 3.18359375 C26.74109375 3.43786133 26.74109375 3.43786133 28.62695312 3.69726562 C34.03714594 4.45251016 39.42560132 5.24620764 44.79492188 6.25390625 C51.23379726 7.46030963 57.71344929 8.31464915 64.20507812 9.18359375 C72.9405322 10.3716155 81.67349507 11.56771247 90.39257812 12.87109375 C91.51587524 13.03726196 91.51587524 13.03726196 92.66186523 13.20678711 C96.595993 13.80045948 100.50586457 14.47145828 104.41601562 15.20703125 C111.16853848 16.45045356 117.96276649 17.34161204 124.76757812 18.24609375 C133.31413504 19.3820847 141.79570764 20.64590991 150.26757812 22.24609375 C152.49570027 22.62725086 154.7246407 23.00372759 156.95507812 23.37109375 C157.96957031 23.53867188 158.9840625 23.70625 160.02929688 23.87890625 C160.76792969 24.00007813 161.5065625 24.12125 162.26757812 24.24609375 C160.8664459 28.87649794 158.9471249 33.03985758 156.66210938 37.28515625 C156.12749336 38.29162201 156.12749336 38.29162201 155.58207703 39.31842041 C154.41915383 41.5050267 153.24969718 43.68806292 152.08007812 45.87109375 C151.27240039 47.38667583 150.46511275 48.90246586 149.65820312 50.41845703 C147.20104796 55.03109501 144.73498538 59.63893394 142.26757812 64.24609375 C141.50630284 65.66859581 140.74507107 67.09112116 139.98388672 68.51367188 C134.57258506 78.62462728 134.57258506 78.62462728 131.86450195 83.66259766 C131.28595459 84.73944824 130.70740723 85.81629883 130.11132812 86.92578125 C129.60794922 87.86147949 129.10457031 88.79717773 128.5859375 89.76123047 C127.44684617 91.90820668 126.34242171 94.06640798 125.26757812 96.24609375 C117.08330938 95.71052029 109.30336468 94.04832633 101.33007812 92.18359375 C99.96685406 91.8696776 98.60348756 91.55637943 97.23999023 91.24365234 C94.36954209 90.58436895 91.49989751 89.9217399 88.63085938 89.25634766 C82.25011594 87.7772626 75.86425448 86.32058908 69.47875977 84.86218262 C67.32029695 84.36885823 65.16207797 83.874479 63.00390625 83.37988281 C54.86667113 81.51633264 46.72561486 79.67068918 38.58007812 77.84375 C37.68252304 77.64235413 36.78496796 77.44095825 35.86021423 77.23345947 C31.49591453 76.25454285 27.13120388 75.27751306 22.76586914 74.30322266 C15.05417239 72.57781202 7.37139985 70.79104426 -0.2878418 68.84301758 C-3.39500723 68.08430196 -6.51547185 67.52121028 -9.66992188 66.99609375 C-22.48415777 64.74597495 -35.10831148 61.36500667 -47.73242188 58.24609375 C-45.9180922 54.43431344 -43.54579949 51.28028997 -40.91992188 47.99609375 C-40.19675781 47.0834375 -40.19675781 47.0834375 -39.45898438 46.15234375 C-35.2108393 40.80685174 -30.89824698 35.51370127 -26.58203125 30.22314453 C-23.45959454 26.3906412 -20.3639639 22.53990936 -17.31494141 18.64868164 C-16.39544118 17.47701885 -15.47073938 16.30941688 -14.54052734 15.14624023 C-12.45443049 12.52584325 -10.53898669 9.94406338 -8.72851562 7.1171875 C-4.24151951 0.38200962 -4.24151951 0.38200962 0 0 Z " fill="#FDFDFD" transform="translate(143.732421875,211.75390625)"/>
<path d="M0 0 C14.87183186 -0.404533 29.67263616 0.75281163 44.5021019 1.73504257 C50.22565891 2.11238255 55.95000441 2.47771371 61.67428398 2.84390068 C63.09570888 2.93485339 64.51712234 3.02598487 65.93852425 3.11729622 C79.71877834 4.00164173 93.50385048 4.75815163 107.29736328 5.40380859 C108.00509384 5.43822556 108.7128244 5.47264252 109.44200134 5.50810242 C111.28109086 5.59731318 113.12039552 5.68205999 114.9597168 5.76635742 C117.72012199 5.97849167 120.30359142 6.38690792 123 7 C121.54605879 13.19724446 119.67962576 19.16532104 117.625 25.1875 C115.60415332 31.16559919 113.61922928 37.14107532 111.8125 43.1875 C110.18185497 48.59474717 108.2056322 53.80268582 106 59 C99.6494629 59.11228613 93.59255958 58.72506905 87.30078125 57.8984375 C86.37179016 57.78148529 85.44279907 57.66453308 84.48565674 57.54403687 C82.47690158 57.29098148 80.46843492 57.03562738 78.4602356 56.77819824 C73.02195255 56.08160029 67.58146923 55.40282867 62.140625 54.7265625 C61.00117935 54.58484619 59.8617337 54.44312988 58.6877594 54.29711914 C50.16836288 53.24649492 41.64205358 52.27218507 33.109375 51.3359375 C31.88901047 51.20202606 30.66864594 51.06811462 29.41130066 50.93014526 C23.47395585 50.28111806 17.5358109 49.64011759 11.59692383 49.00537109 C9.42007887 48.76925891 7.2432394 48.53309608 5.06640625 48.296875 C4.09229797 48.19498871 3.1181897 48.09310242 2.11456299 47.98812866 C-4.00672522 47.32019528 -9.98358543 46.31106108 -16 45 C-13.6499754 35.52841849 -10.34209175 26.54143171 -6.875 17.4375 C-6.318575 15.96305487 -5.76258248 14.48844645 -5.20703125 13.01367188 C-1.18984596 2.37969192 -1.18984596 2.37969192 0 0 Z " fill="#FDFDFD" transform="translate(265,110)"/>
<path d="M0 0 C7.97932925 0.19295271 15.93023632 1.70350713 23.78125 3.03125 C24.95715698 3.22722778 26.13306396 3.42320557 27.34460449 3.62512207 C29.80883725 4.03671523 32.2727422 4.45027542 34.73632812 4.86572266 C38.51610897 5.50271478 42.29701395 6.13267581 46.078125 6.76171875 C48.4792356 7.16365092 50.88027973 7.56598043 53.28125 7.96875 C54.41244263 8.15731567 55.54363525 8.34588135 56.70910645 8.54016113 C57.75449585 8.71704468 58.79988525 8.89392822 59.87695312 9.07617188 C60.79641724 9.23081909 61.71588135 9.38546631 62.66320801 9.5447998 C65 10 65 10 68 11 C67.29329494 16.98234051 65.91212605 22.68038539 64.375 28.5 C63.98393066 29.99067993 63.98393066 29.99067993 63.58496094 31.51147461 C60.1422247 44.45425248 56.30520906 57.31651646 52 70 C47.32349269 69.39606545 42.83759211 68.54326153 38.2734375 67.36328125 C36.37247314 66.87335693 36.37247314 66.87335693 34.43310547 66.37353516 C33.08032675 66.02015101 31.72762671 65.66646553 30.375 65.3125 C28.96370472 64.94579965 27.55240915 64.57910044 26.14111328 64.21240234 C17.9074613 62.06495626 9.70306192 59.83355037 1.53735352 57.43969727 C-4.43394795 55.70056809 -10.43081853 54.07326747 -16.44140625 52.4765625 C-17.28012268 52.25304108 -18.11883911 52.02951965 -18.98297119 51.79922485 C-24.10919892 50.43327741 -24.10919892 50.43327741 -29.23907471 49.08111572 C-31.64405826 48.45058843 -34.04675576 47.81192794 -36.44921875 47.171875 C-37.18153214 46.98251373 -37.91384552 46.79315247 -38.66835022 46.59805298 C-43.77286189 45.22713811 -43.77286189 45.22713811 -46 43 C-44.6701338 41.64242826 -43.33586929 40.28916504 -42 38.9375 C-41.2575 38.18339844 -40.515 37.42929688 -39.75 36.65234375 C-36.94145842 33.94353731 -34.03403674 31.39266058 -31.08789062 28.83618164 C-27.73397356 25.8866014 -24.49514696 22.8181536 -21.25 19.75 C-15.26260598 14.11107864 -9.23556244 8.52047286 -3.16015625 2.9765625 C-1.55789704 1.5114686 -1.55789704 1.5114686 0 0 Z " fill="#FDFDFD" transform="translate(377,184)"/>
<path d="M0 0 C42 11 42 11 45 12 C48.31962888 69.73971271 48.31962888 69.73971271 30.96484375 96.00390625 C28.37883927 99.94717749 26.24768042 104.04619478 24.125 108.25 C23.37125402 109.66874663 22.61595023 111.08666635 21.859375 112.50390625 C14.65923914 126.20553465 7.89247218 140.14182735 1 154 C0.67 154 0.34 154 0 154 C0 103.18 0 52.36 0 0 Z " fill="#FEFEFE" transform="translate(324,240)"/>
<path d="M0 0 C7.3846654 0.61538878 14.62145009 1.29069376 21.9375 2.3125 C32.04565411 3.67652046 42.17047448 4.8016363 52.3125 5.875 C72.89831512 8.05537248 93.44926676 10.5130957 114 13 C112.38166932 16.44761196 110.71526089 18.37580553 107.8125 20.875 C103.34036085 24.79860837 98.96360459 28.80417643 94.625 32.875 C89.9103698 37.28670837 85.19022263 41.6918144 80.4375 46.0625 C79.52871094 46.89910156 78.61992187 47.73570312 77.68359375 48.59765625 C76.79800781 49.39042969 75.91242188 50.18320313 75 51 C74.51370117 51.46849365 74.02740234 51.9369873 73.52636719 52.41967773 C71.10367593 54.64750714 69.52106681 55.93650867 66.2109375 56.33984375 C65.27507812 56.20707031 64.33921875 56.07429688 63.375 55.9375 C62.45460938 55.82277344 61.53421875 55.70804688 60.5859375 55.58984375 C58.51950488 55.24994034 56.45338774 54.90808044 54.38818359 54.56079102 C45.80565784 53.11906797 37.20670176 51.83369258 28.59375 50.58789062 C19.03406759 49.18959209 9.53702051 47.58950342 0 46 C0 30.82 0 15.64 0 0 Z " fill="#FCFCFC" transform="translate(246,168)"/>
<path d="M0 0 C0.8519545 0.32678238 1.703909 0.65356476 2.5816803 0.99024963 C4.36742431 1.67767975 6.15146217 2.369557 7.93383789 3.06567383 C10.67202201 4.13353376 13.41648201 5.18386886 16.16210938 6.23242188 C17.90013629 6.90392204 19.6377809 7.57641273 21.375 8.25 C22.19781967 8.56464706 23.02063934 8.87929413 23.86839294 9.20347595 C29.60735505 11.46080386 29.60735505 11.46080386 30.72265625 13.69140625 C-6.36574096 29.87272915 -6.36574096 29.87272915 -23.09368896 37.12954712 C-24.90660969 37.91613958 -26.71917987 38.70353981 -28.53173828 39.4909668 C-30.72763179 40.44277425 -32.92575892 41.38945112 -35.12646484 42.33007812 C-37.28045908 43.26070511 -39.42375161 44.21639517 -41.55712891 45.19335938 C-43.12986572 45.8962207 -43.12986572 45.8962207 -44.734375 46.61328125 C-45.65839111 47.03706055 -46.58240723 47.46083984 -47.53442383 47.89746094 C-52.64765693 49.37749957 -57.22094422 47.48834154 -62.00732422 45.55834961 C-63.10801239 45.1179686 -64.20870056 44.67758759 -65.34274292 44.22386169 C-66.51483307 43.74779984 -67.68692322 43.27173798 -68.89453125 42.78125 C-70.10682404 42.29435196 -71.31911682 41.80745392 -72.56814575 41.30580139 C-75.77601609 40.01733255 -78.98091888 38.72163892 -82.1852417 37.42437744 C-85.46156439 36.09947398 -88.74066412 34.78148145 -92.01953125 33.46289062 C-98.4415243 30.87912214 -104.86040632 28.28770428 -111.27734375 25.69140625 C-111.27734375 25.03140625 -111.27734375 24.37140625 -111.27734375 23.69140625 C-109.78460938 23.25441406 -109.78460938 23.25441406 -108.26171875 22.80859375 C-97.75588665 19.72839653 -87.26591314 16.59738109 -76.78173828 13.44433594 C-72.82249328 12.25401506 -68.86240252 11.06651647 -64.90234375 9.87890625 C-59.47236792 8.25046758 -54.04267664 6.62108961 -48.61358643 4.98970032 C-45.90472125 4.17578427 -43.19574345 3.36224346 -40.48675537 2.54873657 C-39.15210993 2.14784336 -37.81751416 1.74678474 -36.48297119 1.34555054 C-34.59554816 0.77811195 -32.70793302 0.21131252 -30.8203125 -0.35546875 C-29.18098755 -0.84805176 -29.18098755 -0.84805176 -27.50854492 -1.35058594 C-26.44224854 -1.66672852 -25.37595215 -1.98287109 -24.27734375 -2.30859375 C-23.15239502 -2.69950195 -22.02744629 -3.09041016 -20.8684082 -3.49316406 C-13.29964519 -5.21181716 -6.98759499 -2.73637619 0 0 Z " fill="#FCFCFC" transform="translate(190.27734375,148.30859375)"/>
<path d="M0 0 C0 13.53 0 27.06 0 41 C-19.75715782 38.67562849 -19.75715782 38.67562849 -27.4375 37.5 C-28.23091797 37.38269531 -29.02433594 37.26539063 -29.84179688 37.14453125 C-33.88716775 36.53328918 -37.89528732 35.83470309 -41.90234375 35.0078125 C-47.28142342 33.90779621 -52.6873787 33.12343664 -58.125 32.375 C-59.08148438 32.2409375 -60.03796875 32.106875 -61.0234375 31.96875 C-63.34860807 31.64322612 -65.67411161 31.32034731 -68 31 C-68 30.34 -68 29.68 -68 29 C-52.40400106 22.02724602 -36.77614034 15.13681058 -21.09130859 8.36645508 C-19.90359863 7.8536499 -18.71588867 7.34084473 -17.4921875 6.8125 C-16.37682617 6.33167969 -15.26146484 5.85085937 -14.11230469 5.35546875 C-10.61472939 3.83220721 -7.13984887 2.26301257 -3.67626953 0.6640625 C-2 0 -2 0 0 0 Z " fill="#FAFAFA" transform="translate(233,171)"/>
</svg>
